<mxfile host="app.diagrams.net" modified="2021-01-05T08:56:02.301Z" agent="5.0 (Windows NT 6.1; Win64; x64) AppleWebKit/537.36 (KHTML, like Gecko) Chrome/87.0.4280.88 Safari/537.36" etag="2QTu4wCwl2RFfgQnAkuK" version="14.1.8" type="github">
  <diagram id="bPBITdGlTn3eEg4ikFba" name="Page-1">
    <mxGraphModel dx="785" dy="518" grid="1" gridSize="10" guides="1" tooltips="1" connect="1" arrows="1" fold="1" page="1" pageScale="1" pageWidth="827" pageHeight="1169" math="0" shadow="0">
      <root>
        <mxCell id="0" />
        <mxCell id="1" parent="0" />
        <mxCell id="IIUlaohH5nh3aptBXBQB-1" value="&lt;font style=&quot;font-size: 18px&quot;&gt;C2回收流程&lt;/font&gt;" style="text;html=1;align=center;verticalAlign=middle;resizable=0;points=[];autosize=1;" vertex="1" parent="1">
          <mxGeometry x="324" y="120" width="110" height="20" as="geometry" />
        </mxCell>
        <mxCell id="IIUlaohH5nh3aptBXBQB-2" value="&lt;font style=&quot;font-size: 14px&quot;&gt;频道回收&lt;/font&gt;" style="text;html=1;align=center;verticalAlign=middle;resizable=0;points=[];autosize=1;" vertex="1" parent="1">
          <mxGeometry x="180" y="170" width="70" height="20" as="geometry" />
        </mxCell>
        <mxCell id="IIUlaohH5nh3aptBXBQB-14" value="" style="edgeStyle=orthogonalEdgeStyle;rounded=0;orthogonalLoop=1;jettySize=auto;html=1;" edge="1" parent="1" source="IIUlaohH5nh3aptBXBQB-3" target="IIUlaohH5nh3aptBXBQB-13">
          <mxGeometry relative="1" as="geometry" />
        </mxCell>
        <mxCell id="IIUlaohH5nh3aptBXBQB-3" value="校验过程:&lt;br&gt;1.频道status!=1&lt;br&gt;2.频道injectionstatus=2&lt;br&gt;3.所属节目单status=1 || injectionstatus=2" style="rounded=1;whiteSpace=wrap;html=1;" vertex="1" parent="1">
          <mxGeometry x="138.75" y="245" width="152.5" height="70" as="geometry" />
        </mxCell>
        <mxCell id="IIUlaohH5nh3aptBXBQB-4" value="&lt;font style=&quot;font-size: 14px&quot;&gt;节目单回收&lt;/font&gt;" style="text;html=1;align=center;verticalAlign=middle;resizable=0;points=[];autosize=1;" vertex="1" parent="1">
          <mxGeometry x="500" y="170" width="90" height="20" as="geometry" />
        </mxCell>
        <mxCell id="IIUlaohH5nh3aptBXBQB-7" value="" style="edgeStyle=orthogonalEdgeStyle;rounded=0;orthogonalLoop=1;jettySize=auto;html=1;" edge="1" parent="1" source="IIUlaohH5nh3aptBXBQB-5" target="IIUlaohH5nh3aptBXBQB-6">
          <mxGeometry relative="1" as="geometry" />
        </mxCell>
        <mxCell id="IIUlaohH5nh3aptBXBQB-5" value="校验过程:(满足一条校验不通过)&lt;br&gt;1.status!=1(节目单下发状态)&lt;br&gt;2.injectionstatus!=0 &amp;amp;&amp;amp; injectionstatus!=3(节目单注入状态)&lt;br&gt;3.contentinjectionstatus!=0(节目单内容注入状态)&lt;br&gt;4.对应频道没有下发成功" style="rounded=1;whiteSpace=wrap;html=1;" vertex="1" parent="1">
          <mxGeometry x="447.5" y="225" width="195" height="110" as="geometry" />
        </mxCell>
        <mxCell id="IIUlaohH5nh3aptBXBQB-6" value="1.修改节目单content_injection_status=2,判断c1status=-1,则修改status=-1&lt;br&gt;2.增加节目单回收事件cms_send_event&lt;br&gt;3.如果有已下发的内容(epg_category_out不为空),每一条节目单内容生成一条delete回收事件(不处理)" style="whiteSpace=wrap;html=1;rounded=1;arcSize=13;" vertex="1" parent="1">
          <mxGeometry x="428.75" y="390" width="232.5" height="90" as="geometry" />
        </mxCell>
        <mxCell id="IIUlaohH5nh3aptBXBQB-8" value="定时任务sendjob轮询&lt;span style=&quot;font-size: 9px&quot;&gt;cms_send_event,处理status=1的事件&lt;/span&gt;" style="rounded=1;whiteSpace=wrap;html=1;" vertex="1" parent="1">
          <mxGeometry x="313.9999999999999" y="560" width="120" height="60" as="geometry" />
        </mxCell>
        <mxCell id="IIUlaohH5nh3aptBXBQB-9" value="" style="endArrow=classic;html=1;" edge="1" parent="1" target="IIUlaohH5nh3aptBXBQB-10">
          <mxGeometry width="50" height="50" relative="1" as="geometry">
            <mxPoint x="373.65999999999985" y="620" as="sourcePoint" />
            <mxPoint x="373.65999999999997" y="660" as="targetPoint" />
          </mxGeometry>
        </mxCell>
        <mxCell id="IIUlaohH5nh3aptBXBQB-10" value="生成cms_send_task,生成请求工单,发送soap消息" style="rounded=1;whiteSpace=wrap;html=1;" vertex="1" parent="1">
          <mxGeometry x="313.9999999999999" y="660" width="120" height="60" as="geometry" />
        </mxCell>
        <mxCell id="IIUlaohH5nh3aptBXBQB-13" value="1.频道回收事件一条(mapping)cms_send_event&lt;br&gt;2.修改注入状态injectionstatus=2&lt;br&gt;3.回收事件一条(object)(不处理)&lt;br&gt;4.回收两张图片,两条图片的回收事件(不处理)" style="whiteSpace=wrap;html=1;rounded=1;" vertex="1" parent="1">
          <mxGeometry x="117.5" y="387.5" width="195" height="95" as="geometry" />
        </mxCell>
        <mxCell id="IIUlaohH5nh3aptBXBQB-16" value="" style="endArrow=classic;html=1;entryX=0.75;entryY=0;entryDx=0;entryDy=0;exitX=0.5;exitY=1;exitDx=0;exitDy=0;" edge="1" parent="1" source="IIUlaohH5nh3aptBXBQB-6" target="IIUlaohH5nh3aptBXBQB-8">
          <mxGeometry width="50" height="50" relative="1" as="geometry">
            <mxPoint x="390" y="570" as="sourcePoint" />
            <mxPoint x="440" y="520" as="targetPoint" />
          </mxGeometry>
        </mxCell>
        <mxCell id="IIUlaohH5nh3aptBXBQB-17" value="" style="endArrow=classic;html=1;entryX=0.25;entryY=0;entryDx=0;entryDy=0;exitX=0.5;exitY=1;exitDx=0;exitDy=0;" edge="1" parent="1" source="IIUlaohH5nh3aptBXBQB-13" target="IIUlaohH5nh3aptBXBQB-8">
          <mxGeometry width="50" height="50" relative="1" as="geometry">
            <mxPoint x="555" y="490" as="sourcePoint" />
            <mxPoint x="418.9999999999998" y="620" as="targetPoint" />
          </mxGeometry>
        </mxCell>
      </root>
    </mxGraphModel>
  </diagram>
</mxfile>
